<svg width="28" height="28" viewBox="0 0 28 28" fill="none" xmlns="http://www.w3.org/2000/svg">
    <path d="M20.3639 1.97918L26.0208 7.63606L26.7279 6.92893C27.8995 5.75737 27.8995 3.85787 26.7279 2.68631L25.3137 1.27212C24.1422 0.100557 22.2427 0.100557 21.0711 1.27212L20.3639 1.97918ZM25.6067 5.80768L22.1923 2.39331C21.9491 2.15006 22.0176 1.73793 22.3278 1.58931C23.0716 1.23287 23.9902 1.36281 24.6066 1.97918L26.0208 3.39337C26.6371 4.00974 26.7671 4.92831 26.4106 5.67212C26.2621 5.98237 25.8499 6.05087 25.6067 5.80768Z" fill="#463C4B"/>
    <path d="M1.97918 20.3639L7.63606 26.0208L6.92893 26.7279C5.75737 27.8995 3.85787 27.8995 2.68631 26.7279L1.27212 25.3137C0.100557 24.1422 0.100557 22.2427 1.27212 21.0711L1.97918 20.3639ZM5.80768 25.6067L2.39331 22.1923C2.15006 21.9491 1.73793 22.0176 1.58931 22.3278C1.23287 23.0716 1.36281 23.9902 1.97918 24.6066L3.39337 26.0208C4.00974 26.6371 4.92831 26.7671 5.67212 26.4106C5.98237 26.2621 6.05087 25.8499 5.80768 25.6067Z" fill="#463C4B"/>
    <path d="M14 28C21.732 28 28 21.732 28 14C28 6.26801 21.732 0 14 0C6.26801 0 0 6.26801 0 14C0 21.732 6.26801 28 14 28Z" fill="#555A6E"/>
    <path d="M0.5 14.5C0.223875 14.5 0 14.2761 0 14C0 10.2604 1.45625 6.74475 4.1005 4.1005C6.74475 1.45625 10.2604 0 14 0C14.2761 0 14.5 0.223875 14.5 0.5C14.5 0.776125 14.2761 1 14 1C6.83181 1 1 6.83181 1 14C1 14.2761 0.776125 14.5 0.5 14.5Z" fill="#6E788C"/>
    <path d="M14 26C20.6274 26 26 20.6274 26 14C26 7.37258 20.6274 2 14 2C7.37258 2 2 7.37258 2 14C2 20.6274 7.37258 26 14 26Z" fill="#463C4B"/>
    <path d="M16.6667 19.8333C16.9428 19.8333 17.1667 19.6095 17.1667 19.3333C17.1667 19.0572 16.9428 18.8333 16.6667 18.8333C16.3905 18.8333 16.1667 19.0572 16.1667 19.3333C16.1667 19.6095 16.3905 19.8333 16.6667 19.8333Z" fill="#FFBE28"/>
    <path d="M20.8333 15.3333C21.1095 15.3333 21.3333 15.1095 21.3333 14.8333C21.3333 14.5572 21.1095 14.3333 20.8333 14.3333C20.5572 14.3333 20.3333 14.5572 20.3333 14.8333C20.3333 15.1095 20.5572 15.3333 20.8333 15.3333Z" fill="#FFBE28"/>
    <path d="M21.3333 20C21.6095 20 21.8333 19.7761 21.8333 19.5C21.8333 19.2239 21.6095 19 21.3333 19C21.0572 19 20.8333 19.2239 20.8333 19.5C20.8333 19.7761 21.0572 20 21.3333 20Z" fill="#FFBE28"/>
    <path d="M25.1199 14.4855C25.3381 14.4318 25.5 14.2348 25.5 14C25.5 13.7652 25.3381 13.5682 25.1199 13.5145C25.3326 13.442 25.4767 13.2316 25.4562 12.9977C25.4358 12.7638 25.2573 12.5816 25.0352 12.5472C25.2409 12.4564 25.3661 12.2343 25.3253 12.0031C25.2846 11.7718 25.0909 11.6059 24.8666 11.5909C25.0636 11.4826 25.1689 11.2504 25.1082 11.0236C25.0474 10.7967 24.8401 10.6484 24.6153 10.653C24.8021 10.5279 24.8868 10.2874 24.8065 10.0667C24.7262 9.84606 24.5067 9.71637 24.2833 9.74056C24.4584 9.59963 24.5219 9.35269 24.4226 9.13988C24.3234 8.92706 24.0934 8.81694 23.8729 8.8605C24.0351 8.70488 24.0768 8.45331 23.9594 8.24994C23.8419 8.04656 23.6033 7.95694 23.3874 8.01956C23.5354 7.85038 23.5551 7.59619 23.4204 7.40381C23.2857 7.21144 23.0401 7.14294 22.8305 7.22412C22.9632 7.04269 22.9606 6.78775 22.8096 6.60787C22.6587 6.428 22.4081 6.38119 22.2064 6.48031C22.3228 6.288 22.2979 6.03425 22.1319 5.86819C21.9658 5.70212 21.7121 5.67731 21.5198 5.79369C21.6189 5.592 21.5721 5.34137 21.3922 5.19044C21.2123 5.0395 20.9573 5.03687 20.7759 5.16956C20.8571 4.96 20.7886 4.71438 20.5963 4.57969C20.4039 4.445 20.1497 4.46463 19.9805 4.61263C20.0431 4.39675 19.9535 4.15806 19.7501 4.04069C19.5468 3.92325 19.2952 3.965 19.1396 4.12712C19.1832 3.90662 19.0731 3.67662 18.8603 3.57744C18.6474 3.47819 18.4005 3.54169 18.2596 3.71681C18.2838 3.49338 18.154 3.27387 17.9334 3.19356C17.7127 3.11325 17.4722 3.198 17.3471 3.38475C17.3517 3.16006 17.2034 2.95269 16.9766 2.89187C16.7498 2.83112 16.5176 2.9365 16.4092 3.13344C16.3942 2.90919 16.2283 2.7155 15.9971 2.67475C15.7658 2.634 15.5437 2.75919 15.4529 2.96481C15.4184 2.74275 15.2363 2.56425 15.0024 2.54381C14.7685 2.52331 14.5582 2.66744 14.4856 2.88019C14.4318 2.66188 14.2348 2.5 14 2.5C13.7652 2.5 13.5682 2.66188 13.5145 2.88013C13.442 2.66738 13.2316 2.52325 12.9977 2.54375C12.7638 2.56419 12.5816 2.74269 12.5472 2.96475C12.4564 2.75912 12.2343 2.63394 12.0031 2.67469C11.7718 2.71544 11.6059 2.90906 11.5909 3.13338C11.4826 2.93644 11.2504 2.83106 11.0236 2.89181C10.7968 2.95262 10.6484 3.15994 10.653 3.38469C10.5279 3.19794 10.2874 3.11319 10.0667 3.1935C9.84606 3.27381 9.71637 3.49331 9.74056 3.71675C9.59963 3.54163 9.35269 3.47812 9.13988 3.57737C8.92706 3.67662 8.81694 3.90662 8.8605 4.12706C8.70488 3.96494 8.45331 3.92319 8.25 4.04063C8.04663 4.158 7.957 4.39675 8.01962 4.61256C7.85044 4.46456 7.59625 4.44494 7.40388 4.57963C7.2115 4.71431 7.143 4.95994 7.22419 5.1695C7.04275 5.03681 6.78781 5.03944 6.60794 5.19037C6.42806 5.34131 6.38125 5.59194 6.48038 5.79362C6.28806 5.67725 6.03431 5.70206 5.86825 5.86812C5.70219 6.03419 5.67737 6.28794 5.79375 6.48025C5.59206 6.38113 5.34144 6.42794 5.1905 6.60781C5.03956 6.78769 5.03694 7.04269 5.16962 7.22406C4.96006 7.14288 4.71444 7.21138 4.57975 7.40375C4.44506 7.59613 4.46469 7.85031 4.61269 8.0195C4.39681 7.95687 4.15813 8.0465 4.04075 8.24988C3.92331 8.45325 3.96506 8.70475 4.12719 8.86044C3.90669 8.81687 3.67669 8.92694 3.5775 9.13981C3.47825 9.35262 3.54175 9.59956 3.71688 9.7405C3.49344 9.71631 3.27394 9.846 3.19362 10.0667C3.11331 10.2874 3.19806 10.5278 3.38481 10.6529C3.16012 10.6483 2.95275 10.7967 2.89194 11.0235C2.83113 11.2503 2.93656 11.4825 3.1335 11.5909C2.90925 11.6059 2.71562 11.7718 2.67481 12.003C2.63406 12.2343 2.75925 12.4563 2.96488 12.5471C2.74275 12.5816 2.56431 12.7638 2.54388 12.9976C2.52344 13.2316 2.6675 13.4419 2.88025 13.5144C2.66187 13.5682 2.5 13.7652 2.5 14C2.5 14.2348 2.66188 14.4318 2.88013 14.4855C2.66738 14.558 2.52331 14.7684 2.54375 15.0023C2.56419 15.2362 2.74262 15.4184 2.96475 15.4528C2.75912 15.5436 2.63394 15.7657 2.67469 15.9969C2.71544 16.2282 2.90913 16.3941 3.13338 16.4091C2.93644 16.5174 2.83106 16.7496 2.89187 16.9764C2.95262 17.2032 3.16 17.3516 3.38475 17.3469C3.19806 17.4721 3.11325 17.7125 3.19356 17.9332C3.27387 18.1539 3.49338 18.2836 3.71681 18.2594C3.54169 18.4003 3.47825 18.6472 3.5775 18.8601C3.67675 19.0729 3.90669 19.183 4.12719 19.1394C3.965 19.2951 3.92331 19.5466 4.04075 19.75C4.15819 19.9534 4.39688 20.043 4.61269 19.9804C4.46469 20.1496 4.44506 20.4037 4.57975 20.5961C4.71444 20.7885 4.96006 20.857 5.16962 20.7758C5.03694 20.9573 5.03956 21.2122 5.1905 21.3921C5.34144 21.5719 5.59206 21.6187 5.79375 21.5196C5.67737 21.7119 5.70219 21.9657 5.86825 22.1318C6.03431 22.2978 6.28806 22.3226 6.48038 22.2062C6.38125 22.4079 6.42806 22.6586 6.60794 22.8096C6.78781 22.9605 7.04281 22.9631 7.22419 22.8304C7.143 23.04 7.2115 23.2856 7.40388 23.4203C7.59625 23.555 7.85044 23.5354 8.01962 23.3874C7.957 23.6033 8.04663 23.8419 8.25 23.9593C8.45337 24.0767 8.70488 24.035 8.8605 23.8729C8.81694 24.0934 8.92706 24.3234 9.13988 24.4226C9.35269 24.5218 9.59963 24.4583 9.74056 24.2832C9.71637 24.5066 9.84612 24.7261 10.0667 24.8064C10.2874 24.8868 10.5279 24.802 10.653 24.6152C10.6484 24.8399 10.7968 25.0473 11.0236 25.1081C11.2504 25.1689 11.4826 25.0635 11.5909 24.8666C11.6059 25.0908 11.7718 25.2845 12.0031 25.3253C12.2343 25.366 12.4564 25.2408 12.5472 25.0352C12.5817 25.2573 12.7638 25.4358 12.9977 25.4562C13.2316 25.4766 13.4419 25.3326 13.5145 25.1198C13.5682 25.3381 13.7652 25.5 14 25.5C14.2348 25.5 14.4318 25.3381 14.4855 25.1199C14.558 25.3326 14.7684 25.4767 15.0023 25.4562C15.2362 25.4358 15.4184 25.2573 15.4528 25.0352C15.5436 25.2409 15.7657 25.3661 15.9969 25.3253C16.2282 25.2846 16.3941 25.0909 16.4091 24.8666C16.5174 25.0636 16.7496 25.1689 16.9764 25.1082C17.2032 25.0474 17.3516 24.8401 17.347 24.6153C17.4721 24.8021 17.7126 24.8868 17.9333 24.8065C18.1539 24.7262 18.2836 24.5067 18.2594 24.2833C18.4004 24.4584 18.6473 24.5219 18.8601 24.4226C19.0729 24.3234 19.1831 24.0934 19.1395 23.8729C19.2951 24.0351 19.5467 24.0768 19.75 23.9594C19.9534 23.842 20.043 23.6033 19.9804 23.3874C20.1496 23.5354 20.4037 23.5551 20.5961 23.4204C20.7885 23.2857 20.857 23.0401 20.7758 22.8305C20.9573 22.9632 21.2122 22.9606 21.3921 22.8096C21.5719 22.6587 21.6187 22.4081 21.5196 22.2063C21.7119 22.3227 21.9657 22.2979 22.1318 22.1318C22.2978 21.9657 22.3226 21.712 22.2062 21.5197C22.4079 21.6188 22.6586 21.572 22.8095 21.3921C22.9604 21.2122 22.9631 20.9573 22.8304 20.7759C23.0399 20.8571 23.2856 20.7886 23.4202 20.5962C23.5549 20.4038 23.5353 20.1496 23.3873 19.9804C23.6032 20.0431 23.8419 19.9534 23.9592 19.7501C24.0767 19.5467 24.0349 19.2952 23.8728 19.1395C24.0933 19.1831 24.3233 19.073 24.4225 18.8601C24.5218 18.6473 24.4583 18.4004 24.2832 18.2594C24.5066 18.2836 24.7261 18.1539 24.8064 17.9333C24.8868 17.7126 24.802 17.4721 24.6152 17.347C24.8399 17.3516 25.0473 17.2032 25.1081 16.9764C25.1689 16.7496 25.0635 16.5174 24.8666 16.4091C25.0909 16.3941 25.2845 16.2282 25.3253 15.997C25.3661 15.7657 25.2409 15.5436 25.0352 15.4529C25.2574 15.4184 25.4358 15.2362 25.4562 15.0024C25.4767 14.7684 25.3326 14.558 25.1199 14.4855Z" fill="#FAA019"/>
    <path d="M12.0801 3.16731C7.54381 3.96581 3.96581 7.54381 3.16731 12.0801C3.89288 15.4634 6.89994 18 10.5 18C14.6421 18 18 14.6421 18 10.5C18 6.89994 15.4634 3.89288 12.0801 3.16731Z" fill="#FFBE28"/>
    <path d="M14.5 10C14.7761 10 15 9.77614 15 9.5C15 9.22386 14.7761 9 14.5 9C14.2239 9 14 9.22386 14 9.5C14 9.77614 14.2239 10 14.5 10Z" fill="#FAA019"/>
    <path d="M9.83331 9.66669C10.1095 9.66669 10.3333 9.44283 10.3333 9.16669C10.3333 8.89054 10.1095 8.66669 9.83331 8.66669C9.55717 8.66669 9.33331 8.89054 9.33331 9.16669C9.33331 9.44283 9.55717 9.66669 9.83331 9.66669Z" fill="#FAA019"/>
    <path d="M8 13.6667C8.27614 13.6667 8.5 13.4428 8.5 13.1667C8.5 12.8905 8.27614 12.6667 8 12.6667C7.72386 12.6667 7.5 12.8905 7.5 13.1667C7.5 13.4428 7.72386 13.6667 8 13.6667Z" fill="#FAA019"/>
    <path d="M5.33331 16.5C5.60946 16.5 5.83331 16.2761 5.83331 16C5.83331 15.7239 5.60946 15.5 5.33331 15.5C5.05717 15.5 4.83331 15.7239 4.83331 16C4.83331 16.2761 5.05717 16.5 5.33331 16.5Z" fill="#FAA019"/>
    <path d="M14.1667 17.5C14.4428 17.5 14.6667 17.2761 14.6667 17C14.6667 16.7239 14.4428 16.5 14.1667 16.5C13.8905 16.5 13.6667 16.7239 13.6667 17C13.6667 17.2761 13.8905 17.5 14.1667 17.5Z" fill="#FAA019"/>
    <path d="M13.3333 11.6667C13.6095 11.6667 13.8333 11.4428 13.8333 11.1667C13.8333 10.8905 13.6095 10.6667 13.3333 10.6667C13.0572 10.6667 12.8333 10.8905 12.8333 11.1667C12.8333 11.4428 13.0572 11.6667 13.3333 11.6667Z" fill="#FAA019"/>
    <path d="M19.6667 20.8333C19.9428 20.8333 20.1667 20.6095 20.1667 20.3333C20.1667 20.0572 19.9428 19.8333 19.6667 19.8333C19.3905 19.8333 19.1667 20.0572 19.1667 20.3333C19.1667 20.6095 19.3905 20.8333 19.6667 20.8333Z" fill="#F04B37"/>
    <path d="M6.66669 8.66669C6.94283 8.66669 7.16669 8.44283 7.16669 8.16669C7.16669 7.89054 6.94283 7.66669 6.66669 7.66669C6.39054 7.66669 6.16669 7.89054 6.16669 8.16669C6.16669 8.44283 6.39054 8.66669 6.66669 8.66669Z" fill="#F04B37"/>
    <path d="M16.1667 16C16.4428 16 16.6667 15.7761 16.6667 15.5C16.6667 15.2239 16.4428 15 16.1667 15C15.8905 15 15.6667 15.2239 15.6667 15.5C15.6667 15.7761 15.8905 16 16.1667 16Z" fill="#F04B37"/>
    <path d="M23.1667 10.8333C23.4428 10.8333 23.6667 10.6095 23.6667 10.3333C23.6667 10.0572 23.4428 9.83331 23.1667 9.83331C22.8905 9.83331 22.6667 10.0572 22.6667 10.3333C22.6667 10.6095 22.8905 10.8333 23.1667 10.8333Z" fill="#F04B37"/>
    <path d="M11.5 13.1667C11.7761 13.1667 12 12.9428 12 12.6667C12 12.3905 11.7761 12.1667 11.5 12.1667C11.2239 12.1667 11 12.3905 11 12.6667C11 12.9428 11.2239 13.1667 11.5 13.1667Z" fill="#5FAA46"/>
    <path d="M5.83331 11C6.10946 11 6.33331 10.7761 6.33331 10.5C6.33331 10.2239 6.10946 10 5.83331 10C5.55717 10 5.33331 10.2239 5.33331 10.5C5.33331 10.7761 5.55717 11 5.83331 11Z" fill="#5FAA46"/>
    <path d="M11.5 18C11.7761 18 12 17.7761 12 17.5C12 17.2239 11.7761 17 11.5 17C11.2239 17 11 17.2239 11 17.5C11 17.7761 11.2239 18 11.5 18Z" fill="#5FAA46"/>
    <path d="M22.3333 18C22.6095 18 22.8333 17.7761 22.8333 17.5C22.8333 17.2239 22.6095 17 22.3333 17C22.0572 17 21.8333 17.2239 21.8333 17.5C21.8333 17.7761 22.0572 18 22.3333 18Z" fill="#5FAA46"/>
    <path d="M13.6667 24.6667C13.9428 24.6667 14.1667 24.4428 14.1667 24.1667C14.1667 23.8905 13.9428 23.6667 13.6667 23.6667C13.3905 23.6667 13.1667 23.8905 13.1667 24.1667C13.1667 24.4428 13.3905 24.6667 13.6667 24.6667Z" fill="#5FAA46"/>
    <path d="M14.5 4.33331C14.7761 4.33331 15 4.10946 15 3.83331C15 3.55717 14.7761 3.33331 14.5 3.33331C14.2239 3.33331 14 3.55717 14 3.83331C14 4.10946 14.2239 4.33331 14.5 4.33331Z" fill="#5FAA46"/>
    <path d="M4.83331 18C5.10946 18 5.33331 17.7761 5.33331 17.5C5.33331 17.2239 5.10946 17 4.83331 17C4.55717 17 4.33331 17.2239 4.33331 17.5C4.33331 17.7761 4.55717 18 4.83331 18Z" fill="#F04B37"/>
    <path d="M18 11.6667C18.2761 11.6667 18.5 11.4428 18.5 11.1667C18.5 10.8905 18.2761 10.6667 18 10.6667C17.7239 10.6667 17.5 10.8905 17.5 11.1667C17.5 11.4428 17.7239 11.6667 18 11.6667Z" fill="#FAA019"/>
    <path d="M16.1667 6.33331C16.4428 6.33331 16.6667 6.10946 16.6667 5.83331C16.6667 5.55717 16.4428 5.33331 16.1667 5.33331C15.8905 5.33331 15.6667 5.55717 15.6667 5.83331C15.6667 6.10946 15.8905 6.33331 16.1667 6.33331Z" fill="#FAA019"/>
    <path d="M17.5 8.83331C17.7761 8.83331 18 8.60946 18 8.33331C18 8.05717 17.7761 7.83331 17.5 7.83331C17.2239 7.83331 17 8.05717 17 8.33331C17 8.60946 17.2239 8.83331 17.5 8.83331Z" fill="#FAA019"/>
    <path d="M10.25 6.75C10.186 6.75 10.1221 6.72556 10.0732 6.67681C9.97556 6.57912 9.97556 6.42087 10.0732 6.32325L10.1156 6.28088C10.4579 5.93856 10.9131 5.75 11.3972 5.75H12.5C12.6381 5.75 12.75 5.86194 12.75 6C12.75 6.13806 12.6381 6.25 12.5 6.25H11.3972C11.0466 6.25 10.717 6.38656 10.4691 6.63444L10.4268 6.67681C10.3779 6.72556 10.314 6.75 10.25 6.75Z" fill="#E1322D"/>
    <path d="M11 7.5C10.936 7.5 10.8721 7.47556 10.8232 7.42681C10.7256 7.32912 10.7256 7.17087 10.8232 7.07325L10.8656 7.03088C11.2079 6.68856 11.6631 6.5 12.1472 6.5H13.25C13.3881 6.5 13.5 6.61194 13.5 6.75C13.5 6.88806 13.3881 7 13.25 7H12.1472C11.7966 7 11.467 7.13656 11.2191 7.38444L11.1768 7.42681C11.1279 7.47556 11.064 7.5 11 7.5Z" fill="#E1322D"/>
    <path d="M17.5 5C19.9854 5 22 7.01463 22 9.5C22 11.9854 19.9854 14 17.5 14V13C18.6046 13 19.5 12.1046 19.5 11C19.5 9.89544 18.6046 9 17.5 9V5Z" fill="#E1322D"/>
    <path d="M17.5 5H10.25C10.1119 5 10 5.11194 10 5.25C10 5.38806 10.1119 5.5 10.25 5.5H10.5494C11.0777 5.5 11.5509 5.83144 11.7264 6.32969C12.2745 7.88519 13.757 9 15.5 9H17.5C18.6046 9 19.5 8.10456 19.5 7C19.5 5.89544 18.6046 5 17.5 5Z" fill="#F04B37"/>
    <path d="M16 12H16.5C17.0523 12 17.5 12.4477 17.5 13H16C15.7239 13 15.5 12.7761 15.5 12.5C15.5 12.2239 15.7239 12 16 12Z" fill="#E1322D"/>
    <path d="M16 14H17.5V13H16C15.7239 13 15.5 13.2239 15.5 13.5C15.5 13.7761 15.7239 14 16 14Z" fill="#E1322D"/>
    <path d="M17.25 5.5H10.25C10.1119 5.5 10 5.38806 10 5.25C10 5.11194 10.1119 5 10.25 5H17.25C17.3881 5 17.5 5.11194 17.5 5.25C17.5 5.38806 17.3881 5.5 17.25 5.5Z" fill="#F5826E"/>
    <path d="M13.5 6C13.7761 6 14 5.77614 14 5.5C14 5.22386 13.7761 5 13.5 5C13.2239 5 13 5.22386 13 5.5C13 5.77614 13.2239 6 13.5 6Z" fill="#463C4B"/>
    <path d="M16.6028 22.25H15.5C15.3619 22.25 15.25 22.1381 15.25 22C15.25 21.8619 15.3619 21.75 15.5 21.75H16.6028C16.9534 21.75 17.283 21.6134 17.5309 21.3656L17.5732 21.3232C17.6709 21.2256 17.8292 21.2256 17.9268 21.3232C18.0244 21.4209 18.0244 21.5791 17.9268 21.6768L17.8844 21.7191C17.5421 22.0614 17.0869 22.25 16.6028 22.25Z" fill="#E1322D"/>
    <path d="M15.8528 21.5H14.75C14.6119 21.5 14.5 21.3881 14.5 21.25C14.5 21.1119 14.6119 21 14.75 21H15.8528C16.2034 21 16.533 20.8634 16.7809 20.6156L16.8232 20.5732C16.9209 20.4756 17.0792 20.4756 17.1768 20.5732C17.2744 20.6709 17.2744 20.8291 17.1768 20.9268L17.1344 20.9691C16.7921 21.3114 16.3369 21.5 15.8528 21.5Z" fill="#E1322D"/>
    <path d="M10.5 23C8.01463 23 6 20.9854 6 18.5C6 16.0146 8.01463 14 10.5 14V15C9.39544 15 8.5 15.8954 8.5 17C8.5 18.1046 9.39544 19 10.5 19V23Z" fill="#E1322D"/>
    <path d="M10.5 23H17.75C17.8881 23 18 22.8881 18 22.75C18 22.6119 17.8881 22.5 17.75 22.5H17.4506C16.9223 22.5 16.4491 22.1686 16.2736 21.6703C15.7255 20.1148 14.243 19 12.5 19H10.5C9.39544 19 8.5 19.8954 8.5 21C8.5 22.1046 9.39544 23 10.5 23Z" fill="#F04B37"/>
    <path d="M12 16H11.5C10.9477 16 10.5 15.5523 10.5 15H12C12.2761 15 12.5 15.2239 12.5 15.5C12.5 15.7761 12.2761 16 12 16Z" fill="#E1322D"/>
    <path d="M12 14H10.5V15H12C12.2761 15 12.5 14.7761 12.5 14.5C12.5 14.2239 12.2761 14 12 14Z" fill="#E1322D"/>
    <path d="M10.75 22.5H17.75C17.8881 22.5 18 22.6119 18 22.75C18 22.8881 17.8881 23 17.75 23H10.75C10.6119 23 10.5 22.8881 10.5 22.75C10.5 22.6119 10.6119 22.5 10.75 22.5Z" fill="#F5826E"/>
    <path d="M14.5 23C14.7761 23 15 22.7761 15 22.5C15 22.2239 14.7761 22 14.5 22C14.2239 22 14 22.2239 14 22.5C14 22.7761 14.2239 23 14.5 23Z" fill="#463C4B"/>
    <path d="M19 15.5C17.8954 15.5 17 16.3954 17 17.5C17 17.7761 17.2239 18 17.5 18H20.5C20.7761 18 21 17.7761 21 17.5C21 16.3954 20.1046 15.5 19 15.5Z" fill="#463C4B"/>
    <path d="M19 15.5C17.8954 15.5 17 16.3954 17 17.5H18C18.5523 17.5 19 17.0523 19 16.5V15.5Z" fill="#555A6E"/>
    <path d="M24.5 14C24.5 12.8954 23.6046 12 22.5 12C22.2239 12 22 12.2239 22 12.5V15.5C22 15.7761 22.2239 16 22.5 16C23.6046 16 24.5 15.1046 24.5 14Z" fill="#463C4B"/>
    <path d="M24.5 14C24.5 12.8954 23.6046 12 22.5 12V13C22.5 13.5523 22.9477 14 23.5 14H24.5Z" fill="#555A6E"/>
    <path d="M3.5 14C3.5 12.8954 4.39544 12 5.5 12C5.77612 12 6 12.2239 6 12.5V15.5C6 15.7761 5.77612 16 5.5 16C4.39544 16 3.5 15.1046 3.5 14Z" fill="#463C4B"/>
    <path d="M3.5 14C3.5 12.8954 4.39544 12 5.5 12V13C5.5 13.5523 5.05231 14 4.5 14H3.5Z" fill="#555A6E"/>
    <path d="M9 12C7.89544 12 7 11.1046 7 10C7 9.72387 7.22387 9.5 7.5 9.5H10.5C10.7761 9.5 11 9.72387 11 10C11 11.1046 10.1046 12 9 12Z" fill="#463C4B"/>
    <path d="M9 12C7.89544 12 7 11.1046 7 10H8C8.55231 10 9 10.4477 9 11V12Z" fill="#555A6E"/>
</svg>
